<svg width="297.3125px" height="125.6px" xmlns="http://www.w3.org/2000/svg" viewBox="101.34375 12.200000000000003 297.3125 125.6" style="background: rgb(255, 255, 255);" preserveAspectRatio="xMidYMid"><defs><filter id="editing-hole" x="-100%" y="-100%" width="300%" height="300%"><feFlood flood-color="#000000" result="black"></feFlood><feMorphology operator="dilate" radius="2" in="SourceGraphic" result="erode"></feMorphology><feGaussianBlur in="erode" stdDeviation="4" result="blur"></feGaussianBlur><feOffset in="blur" dx="2" dy="2" result="offset"></feOffset><feComposite operator="atop" in="offset" in2="black" result="merge"></feComposite><feComposite operator="in" in="merge" in2="SourceGraphic" result="inner-shadow"></feComposite></filter></defs><g filter="url(#editing-hole)"><g transform="translate(146.57497596740723, 102.03999710083008)"><path d="M50.11 1.02L52.42 3.78L52.42 3.78Q50.37 6.27 47.58 7.58L47.58 7.58L47.58 7.58Q44.80 8.90 41.54 8.90L41.54 8.90L41.54 8.90Q37.57 8.90 34.02 6.94L34.02 6.94L34.02 6.94Q30.46 4.99 26.05 0.38L26.05 0.38L26.05 0.38Q19.58 0.19 14.40-2.82L14.40-2.82L14.40-2.82Q9.22-5.82 6.27-10.94L6.27-10.94L6.27-10.94Q3.33-16.06 3.33-22.40L3.33-22.40L3.33-22.40Q3.33-28.86 6.37-34.05L6.37-34.05L6.37-34.05Q9.41-39.23 14.82-42.21L14.82-42.21L14.82-42.21Q20.22-45.18 26.88-45.18L26.88-45.18L26.88-45.18Q33.54-45.18 38.88-42.24L38.88-42.24L38.88-42.24Q44.22-39.30 47.30-34.08L47.30-34.08L47.30-34.08Q50.37-28.86 50.37-22.40L50.37-22.40L50.37-22.40Q50.37-16.77 48.03-12.06L48.03-12.06L48.03-12.06Q45.70-7.36 41.50-4.22L41.50-4.22L41.50-4.22Q37.31-1.09 31.87-0.06L31.87-0.06L31.87-0.06Q36.80 5.12 41.60 5.12L41.60 5.12L41.60 5.12Q46.59 5.12 50.11 1.02L50.11 1.02ZM8-22.40L8-22.40Q8-17.15 10.46-12.93L10.46-12.93L10.46-12.93Q12.93-8.70 17.25-6.27L17.25-6.27L17.25-6.27Q21.57-3.84 26.88-3.84L26.88-3.84L26.88-3.84Q32.19-3.84 36.48-6.27L36.48-6.27L36.48-6.27Q40.77-8.70 43.20-12.93L43.20-12.93L43.20-12.93Q45.63-17.15 45.63-22.40L45.63-22.40L45.63-22.40Q45.63-27.65 43.20-31.87L43.20-31.87L43.20-31.87Q40.77-36.10 36.48-38.53L36.48-38.53L36.48-38.53Q32.19-40.96 26.88-40.96L26.88-40.96L26.88-40.96Q21.57-40.96 17.25-38.53L17.25-38.53L17.25-38.53Q12.93-36.10 10.46-31.87L10.46-31.87L10.46-31.87Q8-27.65 8-22.40L8-22.40ZM89.22-23.10L89.22-23.10Q93.63-22.14 96.03-19.30L96.03-19.30L96.03-19.30Q98.43-16.45 98.43-11.97L98.43-11.97L98.43-11.97Q98.43-6.21 94.18-3.10L94.18-3.10L94.18-3.10Q89.92 0 81.60 0L81.60 0L60.99 0L60.99-44.80L80.32-44.80L80.32-44.80Q87.81-44.80 91.94-41.79L91.94-41.79L91.94-41.79Q96.06-38.78 96.06-33.28L96.06-33.28L96.06-33.28Q96.06-29.57 94.24-26.98L94.24-26.98L94.24-26.98Q92.42-24.38 89.22-23.10L89.22-23.10ZM80-40.90L65.73-40.90L65.73-24.64L80-24.64L80-24.64Q85.44-24.64 88.38-26.72L88.38-26.72L88.38-26.72Q91.33-28.80 91.33-32.77L91.33-32.77L91.33-32.77Q91.33-36.74 88.38-38.82L88.38-38.82L88.38-38.82Q85.44-40.90 80-40.90L80-40.90ZM81.54-3.90L81.54-3.90Q87.55-3.90 90.62-5.95L90.62-5.95L90.62-5.95Q93.70-8 93.70-12.35L93.70-12.35L93.70-12.35Q93.70-20.74 81.54-20.74L81.54-20.74L65.73-20.74L65.73-3.90L81.54-3.90ZM127.30 0.38L127.30 0.38Q118.59 0.38 113.73-4.61L113.73-4.61L113.73-4.61Q108.86-9.60 108.86-19.14L108.86-19.14L108.86-44.80L113.60-44.80L113.60-19.33L113.60-19.33Q113.60-11.52 117.12-7.68L117.12-7.68L117.12-7.68Q120.64-3.84 127.30-3.84L127.30-3.84L127.30-3.84Q134.02-3.84 137.54-7.68L137.54-7.68L137.54-7.68Q141.06-11.52 141.06-19.33L141.06-19.33L141.06-44.80L145.66-44.80L145.66-19.14L145.66-19.14Q145.66-9.60 140.83-4.61L140.83-4.61L140.83-4.61Q136 0.38 127.30 0.38L127.30 0.38ZM193.22-44.80L175.30-15.49L175.30 0L170.62 0L170.62-15.49L152.70-44.80L157.76-44.80L173.12-19.65L188.48-44.80L193.22-44.80ZM200.06 0.32L200.06 0.32Q198.66 0.32 197.66-0.70L197.66-0.70L197.66-0.70Q196.67-1.73 196.67-3.20L196.67-3.20L196.67-3.20Q196.67-4.67 197.66-5.66L197.66-5.66L197.66-5.66Q198.66-6.66 200.06-6.66L200.06-6.66L200.06-6.66Q201.47-6.66 202.50-5.66L202.50-5.66L202.50-5.66Q203.52-4.67 203.52-3.20L203.52-3.20L203.52-3.20Q203.52-1.73 202.50-0.70L202.50-0.70L202.50-0.70Q201.47 0.32 200.06 0.32L200.06 0.32Z" fill="#000000"></path></g></g><style>text {
  font-size: 64px;
  font-family: Arial Black;
  dominant-baseline: central;
  text-anchor: middle;
}</style></svg>