<svg width="32" height="32" viewBox="0 0 32 32" fill="none" xmlns="http://www.w3.org/2000/svg">
<g clip-path="url(#clip0_35_14)">
<rect x="23" y="21" width="6" height="6" rx="3" fill="#1890FF"/>
<path d="M24.6684 30.29C23.5664 30.29 22.5417 30.087 21.5944 29.681C20.6664 29.2557 19.9317 28.6853 19.3904 27.97H19.3324V30H17.1284V8.83H19.4194V16.95H19.4774C19.9994 16.2153 20.7147 15.645 21.6234 15.239C22.5514 14.833 23.5664 14.63 24.6684 14.63C26.679 14.63 28.2451 15.326 29.3664 16.718C30.4877 18.0907 31.0484 20.0047 31.0484 22.46C31.0484 24.9153 30.4877 26.839 29.3664 28.231C28.2451 29.6037 26.679 30.29 24.6684 30.29ZM24.1754 28.347C25.664 28.347 26.8047 27.8443 27.5974 26.839C28.4094 25.8143 28.8154 24.3547 28.8154 22.46C28.8154 20.5653 28.4094 19.1153 27.5974 18.11C26.8047 17.0853 25.664 16.573 24.1754 16.573C23.2667 16.573 22.4547 16.7663 21.7394 17.153C21.024 17.5203 20.4537 18.0327 20.0284 18.69C19.6224 19.328 19.4194 20.082 19.4194 20.952V23.968C19.4194 24.8187 19.6224 25.5727 20.0284 26.23C20.4537 26.8873 21.024 27.4093 21.7394 27.796C22.4547 28.1633 23.2667 28.347 24.1754 28.347Z" fill="black"/>
<path d="M11.5684 30.09V21.97H11.5104C11.0077 22.6853 10.2924 23.2557 9.36438 23.681C8.43638 24.087 7.43105 24.29 6.34838 24.29C4.31838 24.29 2.73305 23.6037 1.59238 22.231C0.47105 20.839 -0.0896171 18.9153 -0.0896171 16.46C-0.0896171 14.0047 0.47105 12.0907 1.59238 10.718C2.73305 9.326 4.31838 8.63 6.34838 8.63C7.43105 8.63 8.44605 8.833 9.39338 9.239C10.3407 9.645 11.0754 10.2153 11.5974 10.95H11.6554L11.6844 8.92H13.8304V30.09H11.5684ZM6.81238 22.347C7.74038 22.347 8.55238 22.1633 9.24838 21.796C9.96372 21.4093 10.5244 20.8873 10.9304 20.23C11.3557 19.5727 11.5684 18.8187 11.5684 17.968V14.952C11.5684 14.1013 11.3557 13.3473 10.9304 12.69C10.5244 12.0327 9.96372 11.5203 9.24838 11.153C8.55238 10.7663 7.74038 10.573 6.81238 10.573C5.36238 10.573 4.22172 11.0853 3.39038 12.11C2.57838 13.1153 2.17238 14.5653 2.17238 16.46C2.17238 18.3547 2.57838 19.8143 3.39038 20.839C4.22172 21.8443 5.36238 22.347 6.81238 22.347Z" fill="black"/>
</g>
<defs>
<clipPath id="clip0_35_14">
<rect width="32" height="32" fill="white"/>
</clipPath>
</defs>
</svg>
