<svg width="92" height="38" viewBox="0 0 92 38" fill="none" xmlns="http://www.w3.org/2000/svg">
<rect width="35" height="9" rx="4.5" fill="#1890FF"/>
<path d="M10.128 30.24C8.816 30.24 7.608 30.024 6.504 29.592C5.4 29.16 4.44 28.56 3.624 27.792C2.808 27.008 2.176 26.096 1.728 25.056C1.28 24 1.056 22.848 1.056 21.6C1.056 20.352 1.28 19.208 1.728 18.168C2.176 17.112 2.808 16.2 3.624 15.432C4.44 14.648 5.4 14.04 6.504 13.608C7.608 13.176 8.808 12.96 10.104 12.96C11.416 12.96 12.616 13.176 13.704 13.608C14.808 14.04 15.768 14.64 16.584 15.408C17.4 16.176 18.032 17.088 18.48 18.144C18.928 19.2 19.152 20.352 19.152 21.6C19.152 22.848 18.928 24 18.48 25.056C18.032 26.112 17.4 27.024 16.584 27.792C15.768 28.56 14.808 29.16 13.704 29.592C12.616 30.024 11.424 30.24 10.128 30.24ZM15.6 33.672C15.008 33.672 14.432 33.6 13.872 33.456C13.328 33.328 12.784 33.104 12.24 32.784C11.712 32.48 11.16 32.072 10.584 31.56C10.008 31.064 9.376 30.448 8.688 29.712L12 28.848C12.448 29.44 12.872 29.912 13.272 30.264C13.688 30.632 14.088 30.896 14.472 31.056C14.856 31.216 15.256 31.296 15.672 31.296C16.776 31.296 17.736 30.848 18.552 29.952L19.992 31.68C18.872 33.008 17.408 33.672 15.6 33.672ZM10.104 27.504C10.952 27.504 11.736 27.36 12.456 27.072C13.176 26.784 13.8 26.376 14.328 25.848C14.856 25.304 15.264 24.672 15.552 23.952C15.856 23.232 16.008 22.448 16.008 21.6C16.008 20.736 15.856 19.952 15.552 19.248C15.264 18.528 14.856 17.904 14.328 17.376C13.8 16.832 13.176 16.416 12.456 16.128C11.736 15.84 10.952 15.696 10.104 15.696C9.256 15.696 8.472 15.84 7.752 16.128C7.032 16.416 6.408 16.832 5.88 17.376C5.352 17.904 4.936 18.528 4.632 19.248C4.344 19.952 4.2 20.736 4.2 21.6C4.2 22.448 4.344 23.232 4.632 23.952C4.936 24.672 5.352 25.304 5.88 25.848C6.408 26.376 7.032 26.784 7.752 27.072C8.472 27.36 9.256 27.504 10.104 27.504ZM22.4591 30V13.2H30.3311C32.3471 13.2 33.8831 13.6 34.9391 14.4C35.9951 15.184 36.5231 16.24 36.5231 17.568C36.5231 18.464 36.3151 19.232 35.8991 19.872C35.4831 20.496 34.9231 20.984 34.2191 21.336C33.5311 21.672 32.7791 21.84 31.9631 21.84L32.3951 20.976C33.3391 20.976 34.1871 21.152 34.9391 21.504C35.6911 21.84 36.2831 22.336 36.7151 22.992C37.1631 23.648 37.3871 24.464 37.3871 25.44C37.3871 26.88 36.8351 28 35.7311 28.8C34.6271 29.6 32.9871 30 30.8111 30H22.4591ZM25.5791 27.552H30.6191C31.7871 27.552 32.6831 27.36 33.3071 26.976C33.9311 26.592 34.2431 25.976 34.2431 25.128C34.2431 24.296 33.9311 23.688 33.3071 23.304C32.6831 22.904 31.7871 22.704 30.6191 22.704H25.3391V20.28H29.9951C31.0831 20.28 31.9151 20.088 32.4911 19.704C33.0831 19.32 33.3791 18.744 33.3791 17.976C33.3791 17.192 33.0831 16.608 32.4911 16.224C31.9151 15.84 31.0831 15.648 29.9951 15.648H25.5791V27.552ZM45.8529 30.168C44.7649 30.168 43.8049 29.968 42.9729 29.568C42.1409 29.152 41.4929 28.528 41.0289 27.696C40.5649 26.848 40.3329 25.784 40.3329 24.504V17.184H43.3329V24.096C43.3329 25.248 43.5889 26.112 44.1009 26.688C44.6289 27.248 45.3729 27.528 46.3329 27.528C47.0369 27.528 47.6449 27.384 48.1569 27.096C48.6849 26.808 49.0929 26.376 49.3809 25.8C49.6849 25.224 49.8369 24.512 49.8369 23.664V17.184H52.8369V30H49.9809V26.544L50.4849 27.6C50.0529 28.432 49.4209 29.072 48.5889 29.52C47.7569 29.952 46.8449 30.168 45.8529 30.168ZM57.8209 34.824C57.1969 34.824 56.5729 34.72 55.9489 34.512C55.3249 34.304 54.8049 34.016 54.3889 33.648L55.5889 31.44C55.8929 31.712 56.2369 31.928 56.6209 32.088C57.0049 32.248 57.3969 32.328 57.7969 32.328C58.3409 32.328 58.7809 32.192 59.1169 31.92C59.4529 31.648 59.7649 31.192 60.0529 30.552L60.7969 28.872L61.0369 28.512L65.8849 17.184H68.7649L62.7649 31.032C62.3649 31.992 61.9169 32.752 61.4209 33.312C60.9409 33.872 60.3969 34.264 59.7889 34.488C59.1969 34.712 58.5409 34.824 57.8209 34.824ZM60.4609 30.456L54.6769 17.184H57.7969L62.5009 28.248L60.4609 30.456ZM78.2327 30.168C77.6887 30.168 77.2247 29.984 76.8407 29.616C76.4567 29.232 76.2647 28.752 76.2647 28.176C76.2647 27.568 76.4567 27.088 76.8407 26.736C77.2247 26.368 77.6887 26.184 78.2327 26.184C78.7767 26.184 79.2407 26.368 79.6247 26.736C80.0087 27.088 80.2007 27.568 80.2007 28.176C80.2007 28.752 80.0087 29.232 79.6247 29.616C79.2407 29.984 78.7767 30.168 78.2327 30.168Z" fill="#292B2E"/>
</svg>
